<!--?xml version="1.0" encoding="utf-8"?-->
<!-- Generator: Adobe Illustrator 28.0.0, SVG Export Plug-In . SVG Version: 6.00 Build 0)  -->
<svg version="1.1" id="Map" xmlns="http://www.w3.org/2000/svg" xmlns:xlink="http://www.w3.org/1999/xlink" x="0px" y="0px" viewBox="0 0 1280 946" style="enable-background:new 0 0 1280 946;" xml:space="preserve" width="100%" height="100%">
<style type="text/css">
	.st0{stroke:#FFFFFF;stroke-width:4;}
</style>
<polygon id="R-0404" class="st0 area" points="70,871 70,940 1,940 1,871 " title=""></polygon>
<polygon id="R-0406" class="st0 area" points="141,871 141,940 72,940 72,871 " title=""></polygon>
<polygon id="R-0408" class="st0 area" points="212,871 212,940 143,940 143,871 " title=""></polygon>
<polygon id="R-0410" class="st0 area" points="283,871 283,940 214,940 214,871 " title=""></polygon>
<polygon id="R-0412" class="st0 area" points="354,871 354,940 285,940 285,871 " title=""></polygon>
<polygon id="R-0414" class="st0 area" points="461,871 461,940 356,940 356,871 " title=""></polygon>
<polygon id="R-0416" class="st0 area" points="567,871 567,940 463,940 463,871 " title=""></polygon>
<polygon id="R-0424" class="st0 area" points="638,871 638,940 569,940 569,871 " title=""></polygon>
<polygon id="R-0426" class="st0 area" points="710,871 710,940 640,940 640,871 " title=""></polygon>
<polygon id="R-0428" class="st0 area" points="781,871 781,940 712,940 712,871 " title=""></polygon>
<polygon id="R-0430" class="st0 area" points="852,871 852,940 783,940 783,871 " title=""></polygon>
<polygon id="R-0432" class="st0 area" points="923,871 923,940 854,940 854,871 " title=""></polygon>
<polygon id="R-0434" class="st0 area" points="994,871 994,940 925,940 925,871 " title=""></polygon>
<polygon id="R-0436" class="st0 area" points="1136,871 1136,940 996,940 996,871 " title=""></polygon>
<polygon id="R-04SR" class="st0 area" points="1207,871 1207,940 1138,940 1138,871 " title=""></polygon>
<polygon id="R-04CR" class="st0 area" points="1278,871 1278,940 1209,940 1209,871 " title=""></polygon>
<polygon id="R-0504" class="st0 area" points="70,800 70,869 1,869 1,800 " title=""></polygon>
<polygon id="R-0506" class="st0 area" points="141,800 141,869 72,869 72,800 " title=""></polygon>
<polygon id="R-0508" class="st0 area" points="212,800 212,869 143,869 143,800 " title=""></polygon>
<polygon id="R-0510" class="st0 area" points="283,800 283,869 214,869 214,800 " title=""></polygon>
<polygon id="R-0512" class="st0 area" points="354,800 354,869 285,869 285,800 " title=""></polygon>
<polygon id="R-0514" class="st0 area" points="461,800 461,869 356,869 356,800 " title=""></polygon>
<polygon id="R-0516" class="st0 area" points="567,800 567,869 463,869 463,800 " title=""></polygon>
<polygon id="R-0523" class="st0 area" points="638,800 638,869 569,869 569,800 " title=""></polygon>
<polygon id="R-0525" class="st0 area" points="710,800 710,869 640,869 640,800 " title=""></polygon>
<polygon id="R-0527" class="st0 area" points="781,800 781,869 712,869 712,800 " title=""></polygon>
<polygon id="R-0529" class="st0 area" points="852,800 852,869 783,869 783,800 " title=""></polygon>
<polygon id="R-0531" class="st0 area" points="923,800 923,869 854,869 854,800 " title=""></polygon>
<polygon id="R-0533" class="st0 area" points="994,800 994,869 925,869 925,800 " title=""></polygon>
<polygon id="R-0535" class="st0 area" points="1136,800 1136,869 996,869 996,800 " title=""></polygon>
<polygon id="R-0604" class="st0 area" points="70,729 70,798 1,798 1,729 " title=""></polygon>
<polygon id="R-0606" class="st0 area" points="141,729 141,798 72,798 72,729 " title=""></polygon>
<polygon id="R-0608" class="st0 area" points="212,729 212,798 143,798 143,729 " title=""></polygon>
<polygon id="R-0610" class="st0 area" points="283,729 283,798 214,798 214,729 " title=""></polygon>
<polygon id="R-0612" class="st0 area" points="354,729 354,798 285,798 285,729 " title=""></polygon>
<polygon id="R-0614" class="st0 area" points="461,729 461,798 356,798 356,729 " title=""></polygon>
<polygon id="R-0616" class="st0 area" points="567,729 567,798 463,798 463,729 " title=""></polygon>
<polygon id="R-0623" class="st0 area" points="638,729 638,798 569,798 569,729 " title=""></polygon>
<polygon id="R-0625" class="st0 area" points="710,729 710,798 640,798 640,729 " title=""></polygon>
<polygon id="R-0627" class="st0 area" points="781,729 781,798 712,798 712,729 " title=""></polygon>
<polygon id="R-0629" class="st0 area" points="852,729 852,798 783,798 783,729 " title=""></polygon>
<polygon id="R-0631" class="st0 area" points="923,729 923,798 854,798 854,729 " title=""></polygon>
<polygon id="R-0633" class="st0 area" points="994,729 994,798 925,798 925,729 " title=""></polygon>
<polygon id="R-0635" class="st0 area" points="1136,729 1136,798 996,798 996,729 " title=""></polygon>
<polygon id="R-0704" class="st0 area" points="70,658 70,727 1,727 1,658 " title=""></polygon>
<polygon id="R-0706" class="st0 area" points="141,658 141,727 72,727 72,658 " title=""></polygon>
<polygon id="R-0708" class="st0 area" points="212,658 212,727 143,727 143,658 " title=""></polygon>
<polygon id="R-0710" class="st0 area" points="283,658 283,727 214,727 214,658 " title=""></polygon>
<polygon id="R-0712" class="st0 area" points="354,658 354,727 285,727 285,658 " title=""></polygon>
<polygon id="R-0714" class="st0 area" points="461,658 461,727 356,727 356,658 " title=""></polygon>
<polygon id="R-0716" class="st0 area" points="567,658 567,727 463,727 463,658 " title=""></polygon>
<polygon id="R-0724" class="st0 area" points="638,658 638,727 569,727 569,658 " title=""></polygon>
<polygon id="R-0726" class="st0 area" points="710,658 710,727 640,727 640,658 " title=""></polygon>
<polygon id="R-0728" class="st0 area" points="781,658 781,727 712,727 712,658 " title=""></polygon>
<polygon id="R-0730" class="st0 area" points="852,658 852,727 783,727 783,658 " title=""></polygon>
<polygon id="R-0732" class="st0 area" points="923,658 923,727 854,727 854,658 " title=""></polygon>
<polygon id="R-0734" class="st0 area" points="994,658 994,727 925,727 925,658 " title=""></polygon>
<polygon id="R-0736" class="st0 area" points="1136,658 1136,727 996,727 996,658 " title=""></polygon>
<polygon id="R-0804" class="st0 area" points="70,587 70,656 1,656 1,587 " title=""></polygon>
<polygon id="R-0806" class="st0 area" points="141,587 141,656 72,656 72,587 " title=""></polygon>
<polygon id="R-0808" class="st0 area" points="212,587 212,656 143,656 143,587 " title=""></polygon>
<polygon id="R-0810" class="st0 area" points="283,587 283,656 214,656 214,587 " title=""></polygon>
<polygon id="R-0812" class="st0 area" points="354,587 354,656 285,656 285,587 " title=""></polygon>
<polygon id="R-0814" class="st0 area" points="461,587 461,656 356,656 356,587 " title=""></polygon>
<polygon id="R-0816" class="st0 area" points="567,587 567,656 463,656 463,587 " title=""></polygon>
<polygon id="R-0823" class="st0 area" points="638,587 638,656 569,656 569,587 " title=""></polygon>
<polygon id="R-0825" class="st0 area" points="710,587 710,656 640,656 640,587 " title=""></polygon>
<polygon id="R-0827" class="st0 area" points="781,587 781,656 712,656 712,587 " title=""></polygon>
<polygon id="R-0829" class="st0 area" points="852,587 852,656 783,656 783,587 " title=""></polygon>
<polygon id="R-0831" class="st0 area" points="923,587 923,656 854,656 854,587 " title=""></polygon>
<polygon id="R-0833" class="st0 area" points="994,587 994,656 925,656 925,587 " title=""></polygon>
<polygon id="R-0835" class="st0 area" points="1136,587 1136,656 996,656 996,587 " title=""></polygon>
<polygon id="R-0904" class="st0 area" points="70,516 70,585 1,585 1,516 " title=""></polygon>
<polygon id="R-0906" class="st0 area" points="141,516 141,585 72,585 72,516 " title=""></polygon>
<polygon id="R-0908" class="st0 area" points="212,516 212,585 143,585 143,516 " title=""></polygon>
<polygon id="R-0910" class="st0 area" points="283,516 283,585 214,585 214,516 " title=""></polygon>
<polygon id="R-0912" class="st0 area" points="354,516 354,585 285,585 285,516 " title=""></polygon>
<polygon id="R-0914" class="st0 area" points="461,516 461,585 356,585 356,516 " title=""></polygon>
<polygon id="R-0916" class="st0 area" points="567,516 567,585 463,585 463,516 " title=""></polygon>
<polygon id="R-0923" class="st0 area" points="638,516 638,585 569,585 569,516 " title=""></polygon>
<polygon id="R-0925" class="st0 area" points="710,516 710,585 640,585 640,516 " title=""></polygon>
<polygon id="R-0927" class="st0 area" points="781,516 781,585 712,585 712,516 " title=""></polygon>
<polygon id="R-0929" class="st0 area" points="852,516 852,585 783,585 783,516 " title=""></polygon>
<polygon id="R-0931" class="st0 area" points="923,516 923,585 854,585 854,516 " title=""></polygon>
<polygon id="R-0933" class="st0 area" points="994,516 994,585 925,585 925,516 " title=""></polygon>
<polygon id="R-0935" class="st0 area" points="1136,516 1136,585 996,585 996,516 " title=""></polygon>
<polygon id="R-1004" class="st0 area" points="70,445 70,514 1,514 1,445 " title=""></polygon>
<polygon id="R-1006" class="st0 area" points="141,445 141,514 72,514 72,445 " title=""></polygon>
<polygon id="R-1008" class="st0 area" points="212,445 212,514 143,514 143,445 " title=""></polygon>
<polygon id="R-1010" class="st0 area" points="283,445 283,514 214,514 214,445 " title=""></polygon>
<polygon id="R-1012" class="st0 area" points="354,445 354,514 285,514 285,445 " title=""></polygon>
<polygon id="R-1014" class="st0 area" points="461,445 461,514 356,514 356,445 " title=""></polygon>
<polygon id="R-1016" class="st0 area" points="567,445 567,514 463,514 463,445 " title=""></polygon>
<polygon id="R-1024" class="st0 area" points="638,445 638,514 569,514 569,445 " title=""></polygon>
<polygon id="R-1026" class="st0 area" points="710,445 710,514 640,514 640,445 " title=""></polygon>
<polygon id="R-1028" class="st0 area" points="781,445 781,514 712,514 712,445 " title=""></polygon>
<polygon id="R-1030" class="st0 area" points="852,445 852,514 783,514 783,445 " title=""></polygon>
<polygon id="R-1032" class="st0 area" points="923,445 923,514 854,514 854,445 " title=""></polygon>
<polygon id="R-1034" class="st0 area" points="994,445 994,514 925,514 925,445 " title=""></polygon>
<polygon id="R-1036" class="st0 area" points="1136,445 1136,514 996,514 996,445 " title=""></polygon>
<polygon id="R-1104" class="st0 area" points="70,374 70,443 1,443 1,374 " title=""></polygon>
<polygon id="R-1106" class="st0 area" points="141,374 141,443 72,443 72,374 " title=""></polygon>
<polygon id="R-1108" class="st0 area" points="212,374 212,443 143,443 143,374 " title=""></polygon>
<polygon id="R-1110" class="st0 area" points="283,374 283,443 214,443 214,374 " title=""></polygon>
<polygon id="R-1112" class="st0 area" points="354,374 354,443 285,443 285,374 " title=""></polygon>
<polygon id="R-1114" class="st0 area" points="461,374 461,443 356,443 356,374 " title=""></polygon>
<polygon id="R-1116" class="st0 area" points="567,374 567,443 463,443 463,374 " title=""></polygon>
<polygon id="R-1123" class="st0 area" points="638,374 638,443 569,443 569,374 " title=""></polygon>
<polygon id="R-1125" class="st0 area" points="710,374 710,443 640,443 640,374 " title=""></polygon>
<polygon id="R-1127" class="st0 area" points="781,374 781,443 712,443 712,374 " title=""></polygon>
<polygon id="R-1129" class="st0 area" points="852,374 852,443 783,443 783,374 " title=""></polygon>
<polygon id="R-1131" class="st0 area" points="923,374 923,443 854,443 854,374 " title=""></polygon>
<polygon id="R-1133" class="st0 area" points="994,374 994,443 925,443 925,374 " title=""></polygon>
<polygon id="R-1135" class="st0 area" points="1136,374 1136,443 996,443 996,374 " title=""></polygon>
<polygon id="R-1204" class="st0 area" points="70,302 70,372 1,372 1,302 " title=""></polygon>
<polygon id="R-1206" class="st0 area" points="141,302 141,372 72,372 72,302 " title=""></polygon>
<polygon id="R-1208" class="st0 area" points="212,302 212,372 143,372 143,302 " title=""></polygon>
<polygon id="R-1210" class="st0 area" points="283,302 283,372 214,372 214,302 " title=""></polygon>
<polygon id="R-1212" class="st0 area" points="354,302 354,372 285,372 285,302 " title=""></polygon>
<polygon id="R-1214" class="st0 area" points="461,302 461,372 356,372 356,302 " title=""></polygon>
<polygon id="R-1216" class="st0 area" points="567,302 567,372 463,372 463,302 " title=""></polygon>
<polygon id="R-1223" class="st0 area" points="638,302 638,372 569,372 569,302 " title=""></polygon>
<polygon id="R-1225" class="st0 area" points="710,302 710,372 640,372 640,302 " title=""></polygon>
<polygon id="R-1227" class="st0 area" points="781,302 781,372 712,372 712,302 " title=""></polygon>
<polygon id="R-1229" class="st0 area" points="852,302 852,372 783,372 783,302 " title=""></polygon>
<polygon id="R-1231" class="st0 area" points="923,302 923,372 854,372 854,302 " title=""></polygon>
<polygon id="R-1233" class="st0 area" points="994,302 994,372 925,372 925,302 " title=""></polygon>
<polygon id="R-1235" class="st0 area" points="1136,302 1136,372 996,372 996,302 " title=""></polygon>
<polygon id="R-1304" class="st0 area" points="70,232 70,300 1,300 1,232 " title=""></polygon>
<polygon id="R-1306" class="st0 area" points="141,232 141,300 72,300 72,232 " title=""></polygon>
<polygon id="R-1308" class="st0 area" points="212,232 212,300 143,300 143,232 " title=""></polygon>
<polygon id="R-1310" class="st0 area" points="283,232 283,300 214,300 214,232 " title=""></polygon>
<polygon id="R-1312" class="st0 area" points="354,232 354,300 285,300 285,232 " title=""></polygon>
<polygon id="R-1314" class="st0 area" points="461,232 461,300 356,300 356,232 " title=""></polygon>
<polygon id="R-1316" class="st0 area" points="567,232 567,300 463,300 463,232 " title=""></polygon>
<polygon id="R-1324" class="st0 area" points="638,232 638,300 569,300 569,232 " title=""></polygon>
<polygon id="R-1326" class="st0 area" points="710,232 710,300 640,300 640,232 " title=""></polygon>
<polygon id="R-1328" class="st0 area" points="781,232 781,300 712,300 712,232 " title=""></polygon>
<polygon id="R-1330" class="st0 area" points="852,232 852,300 783,300 783,232 " title=""></polygon>
<polygon id="R-1332" class="st0 area" points="923,232 923,300 854,300 854,232 " title=""></polygon>
<polygon id="R-1334" class="st0 area" points="994,232 994,300 925,300 925,232 " title=""></polygon>
<polygon id="R-1336" class="st0 area" points="1136,232 1136,300 996,300 996,232 " title=""></polygon>
<polygon id="R-1404" class="st0 area" points="70,161 70,230 1,230 1,161 " title=""></polygon>
<polygon id="R-1406" class="st0 area" points="141,161 141,230 72,230 72,161 " title=""></polygon>
<polygon id="R-1408" class="st0 area" points="212,161 212,230 143,230 143,161 " title=""></polygon>
<polygon id="R-1410" class="st0 area" points="283,161 283,230 214,230 214,161 " title=""></polygon>
<polygon id="R-1412" class="st0 area" points="354,161 354,230 285,230 285,161 " title=""></polygon>
<polygon id="R-1414" class="st0 area" points="461,161 461,230 356,230 356,161 " title=""></polygon>
<polygon id="R-1416" class="st0 area" points="567,161 567,230 463,230 463,161 " title=""></polygon>
<polygon id="R-1423" class="st0 area" points="638,161 638,230 569,230 569,161 " title=""></polygon>
<polygon id="R-1425" class="st0 area" points="710,161 710,230 640,230 640,161 " title=""></polygon>
<polygon id="R-1427" class="st0 area" points="781,161 781,230 712,230 712,161 " title=""></polygon>
<polygon id="R-1429" class="st0 area" points="852,161 852,230 783,230 783,161 " title=""></polygon>
<polygon id="R-1431" class="st0 area" points="923,161 923,230 854,230 854,161 " title=""></polygon>
<polygon id="R-1433" class="st0 area" points="994,161 994,230 925,230 925,161 " title=""></polygon>
<polygon id="R-1435" class="st0 area" points="1136,161 1136,230 996,230 996,161 " title=""></polygon>
<polygon id="R-1504" class="st0 area" points="141,89 141,159 1,159 1,89 " title=""></polygon>
<polygon id="R-1508" class="st0 area" points="283,89 283,159 143,159 143,89 " title=""></polygon>
<polygon id="R-1512" class="st0 area" points="354,89 354,159 285,159 285,89 " title=""></polygon>
<polygon id="R-1514" class="st0 area" points="461,89 461,159 356,159 356,89 " title=""></polygon>
<polygon id="R-1516" class="st0 area" points="567,89 567,159 463,159 463,89 " title=""></polygon>
<polygon id="R-1525" class="st0 area" points="923,89 923,159 569,159 569,89 " title=""></polygon>
<polygon id="R-1533" class="st0 area" points="994,89 994,159 925,159 925,89 " title=""></polygon>
<polygon id="R-1535" class="st0 area" points="1136,89 1136,159 996,159 996,89 " title=""></polygon>
<polygon id="R-1605" class="st0 area" points="247,4 247,87 1,87 1,4 " title=""></polygon>
<polygon id="R-1611" class="st0 area" points="354,4 354,87 249,87 249,4 " title=""></polygon>
<polygon id="R-1614" class="st0 area" points="461,4 461,87 356,87 356,4 " title=""></polygon>
<polygon id="R-1616" class="st0 area" points="567,4 567,87 463,87 463,4 " title=""></polygon>
<polygon id="R-1624" class="st0 area" points="674,4 674,87 569,87 569,4 " title=""></polygon>
<polygon id="R-1630" class="st0 area" points="923,4 923,87 676,87 676,4 " title=""></polygon>
<polygon id="R-1635" class="st0 area" points="1030,4 1030,87 925,87 925,4 " title=""></polygon>
<polygon id="R-1638" class="st0 area" points="1136,4 1136,87 1032,87 1032,4 " title=""></polygon>
<polygon id="R-05SR" class="st0 area" points="1207,800 1207,869 1138,869 1138,800 " title=""></polygon>
<polygon id="R-06SR" class="st0 area active" points="1207,729 1207,798 1138,798 1138,729 " title=""></polygon>
<polygon id="R-07SR" class="st0 area" points="1207,658 1207,727 1138,727 1138,658 " title=""></polygon>
<polygon id="R-08SR" class="st0 area" points="1207,587 1207,656 1138,656 1138,587 " title=""></polygon>
<polygon id="R-09SR" class="st0 area" points="1207,516 1207,585 1138,585 1138,516 " title=""></polygon>
<polygon id="R-10SR" class="st0 area" points="1207,445 1207,514 1138,514 1138,445 " title=""></polygon>
<polygon id="R-11SR" class="st0 area" points="1207,374 1207,443 1138,443 1138,374 " title=""></polygon>
<polygon id="R-12SR" class="st0 area" points="1207,302 1207,372 1138,372 1138,302 " title=""></polygon>
<polygon id="R-13SR" class="st0 area" points="1207,232 1207,300 1138,300 1138,232 " title=""></polygon>
<polygon id="R-14SR" class="st0 area" points="1207,161 1207,230 1138,230 1138,161 " title=""></polygon>
<polygon id="R-15SR" class="st0 area" points="1207,89 1207,159 1138,159 1138,89 " title=""></polygon>
<polygon id="R-16SR" class="st0 area" points="1207,4 1207,87 1138,87 1138,4 " title=""></polygon>
<polygon id="R-05CR" class="st0 area" points="1278,800 1278,869 1209,869 1209,800 " title=""></polygon>
<polygon id="R-06CR" class="st0 area" points="1278,729 1278,798 1209,798 1209,729 " title=""></polygon>
<polygon id="R-07CR" class="st0 area" points="1278,658 1278,727 1209,727 1209,658 " title=""></polygon>
<polygon id="R-08CR" class="st0 area" points="1278,587 1278,656 1209,656 1209,587 " title=""></polygon>
<polygon id="R-09CR" class="st0 area" points="1278,516 1278,585 1209,585 1209,516 " title=""></polygon>
<polygon id="R-10CR" class="st0 area" points="1278,445 1278,514 1209,514 1209,445 " title=""></polygon>
<polygon id="R-11CR" class="st0 area" points="1278,374 1278,443 1209,443 1209,374 " title=""></polygon>
<polygon id="R-12CR" class="st0 area" points="1278,302 1278,372 1209,372 1209,302 " title=""></polygon>
<polygon id="R-13CR" class="st0 area" points="1278,232 1278,300 1209,300 1209,232 " title=""></polygon>
<polygon id="R-14CR" class="st0 area" points="1278,161 1278,230 1209,230 1209,161 " title=""></polygon>
<polygon id="R-15CR" class="st0 area" points="1278,89 1278,159 1209,159 1209,89 " title=""></polygon>
<polygon id="R-16CR" class="st0 area" points="1278,4 1278,87 1209,87 1209,4 " title=""></polygon>
</svg>
